<?xml version="1.0" encoding="iso-8859-1"?>
<!-- Uploaded to: SVG Repo, www.svgrepo.com, Generator: SVG Repo Mixer Tools -->
<!DOCTYPE svg PUBLIC "-//W3C//DTD SVG 1.1//EN" "http://www.w3.org/Graphics/SVG/1.1/DTD/svg11.dtd">
<svg fill="#000000" height="800px" width="800px" version="1.1" id="Capa_1" xmlns="http://www.w3.org/2000/svg" xmlns:xlink="http://www.w3.org/1999/xlink" 
	 viewBox="0 0 60 60" xml:space="preserve">
<path d="M42.228,49.644c-0.281-0.385-0.281-0.902,0-1.287c0.67-0.915,0.916-2.036,0.692-3.155c-0.024-0.119-0.068-0.229-0.102-0.344
	C42.926,44.566,43,44.281,43,44v-0.353c0-1.756-0.39-3.526-1.158-5.263c-2.465-5.571-2.457-10.149,0.026-15.802
	C42.619,20.872,43,19.122,43,17.381V16c0-0.81-0.368-1.567-1.093-2.26C42.595,12.657,43,11.376,43,10c0-3.859-3.141-7-7-7h-3V0h-6v3
	h-3c-3.859,0-7,3.141-7,7c0,1.376,0.405,2.656,1.093,3.74C17.368,14.432,17,15.19,17,16v1.375c0,1.745,0.383,3.499,1.138,5.213
	c2.479,5.634,2.482,10.212,0.015,15.803C17.388,40.123,17,41.89,17,43.64V44c0,0.28,0.074,0.566,0.182,0.857
	c-0.034,0.114-0.078,0.224-0.102,0.343c-0.224,1.12,0.022,2.241,0.692,3.156c0.281,0.385,0.281,0.902,0,1.287
	c-0.631,0.861-0.87,1.906-0.712,2.962C17.027,52.751,17,52.906,17,53.084V60h26v-6.916c0-0.177-0.028-0.333-0.061-0.479
	C43.098,51.55,42.859,50.505,42.228,49.644z M19.306,53.048c-0.116-0.186-0.203-0.392-0.253-0.614l-0.018-0.081
	c-0.092-0.545,0.028-1.086,0.351-1.528c0.188-0.257,0.328-0.536,0.428-0.825H23c0.553,0,1-0.447,1-1s-0.447-1-1-1h-3.187
	c-0.099-0.289-0.24-0.568-0.428-0.825c-0.335-0.457-0.457-1.02-0.345-1.585c0.021-0.104,0.053-0.204,0.092-0.302l0.026-0.061
	c0.003-0.007,0.008-0.014,0.011-0.021c0.059-0.135,0.142-0.252,0.226-0.368c0.311-0.402,0.781-0.694,1.317-0.796
	c0.04-0.006,0.078-0.014,0.119-0.018C20.931,44.012,21.03,44,21.132,44h17.736c0.102,0,0.201,0.012,0.3,0.025
	c0.04,0.004,0.079,0.012,0.119,0.018c0.536,0.102,1.006,0.394,1.318,0.797c0.083,0.115,0.165,0.23,0.223,0.363
	c0.004,0.01,0.01,0.018,0.015,0.028l0.024,0.056c0.039,0.098,0.072,0.199,0.092,0.304c0.112,0.564-0.01,1.127-0.345,1.584
	c-0.188,0.257-0.328,0.536-0.428,0.825H31c-0.553,0-1,0.447-1,1s0.447,1,1,1h9.187c0.099,0.289,0.24,0.568,0.428,0.825
	c0.324,0.442,0.444,0.984,0.351,1.528l-0.018,0.08c-0.05,0.221-0.137,0.427-0.253,0.613C40.317,53.618,39.625,54,38.869,54H21.131
	C20.375,54,19.683,53.618,19.306,53.048z M29,2h2v1h-2V2z M28,35h-2V24h5c2.206,0,4,1.794,4,4s-1.794,4-4,4h-3V35z M28,30h3
	c1.103,0,2-0.897,2-2s-0.897-2-2-2h-3V30z"/>
</svg>