<?xml version="1.0" encoding="utf-8"?>

<!DOCTYPE svg PUBLIC "-//W3C//DTD SVG 1.1//EN" "http://www.w3.org/Graphics/SVG/1.1/DTD/svg11.dtd">
<!-- Uploaded to: SVG Repo, www.svgrepo.com, Generator: SVG Repo Mixer Tools -->
<svg height="800px" width="800px" version="1.1" id="_x32_" xmlns="http://www.w3.org/2000/svg" xmlns:xlink="http://www.w3.org/1999/xlink" 
	 viewBox="0 0 512 512"  xml:space="preserve">
<style type="text/css">
	.st0{fill:#000000;}
</style>
<g>
	<path class="st0" d="M144.248,141.181c13.391,0,210.106,0,223.495,0c14.891,0,27.485-13.639,14.891-37.31
		c-13.258-24.906-61.918-46.124-110.247-50.477V39.216c7.786,0,13.713,0,14.858,0c4.162,0,7.686-6.036,4.162-16.516
		c-4.087-12.154-20.239-22.336-35.013-22.685V0c-0.132,0-0.266,0-0.398,0.008C255.863,0,255.731,0,255.597,0v0.016
		c-14.774,0.348-30.917,10.53-35.013,22.685c-3.515,10.48,0,16.516,4.162,16.516c1.144,0,7.08,0,14.866,0v14.178
		c-48.337,4.353-96.998,25.571-110.246,50.477C116.772,127.542,129.366,141.181,144.248,141.181z"/>
	<path class="st0" d="M129.481,343.898h253.037c25.942-18.53,9.882-36.232,3.83-45.601c-81.94-64.87-18.058-121.315-18.058-121.315
		v-25.778H143.709v25.778c0,0,63.875,56.445-18.066,121.315C119.599,307.666,103.531,325.368,129.481,343.898z"/>
	<path class="st0" d="M379.973,396.496c9.294-2.147,16.217-10.446,16.217-20.378c0-11.566-9.369-20.944-20.935-20.944H136.745
		c-11.566,0-20.943,9.377-20.943,20.944c0,9.932,6.931,18.232,16.218,20.378c2.097,19.07-19.534,8.342-19.534,21.682v66.296
		c0,15.197,12.321,27.526,27.526,27.526h231.976c15.198,0,27.526-12.328,27.526-27.526v-66.296
		C399.515,404.838,377.884,415.566,379.973,396.496z"/>
</g>
</svg>