<?xml version="1.0" ?>
<!-- Uploaded to: SVG Repo, www.svgrepo.com, Generator: SVG Repo Mixer Tools -->
<svg width="800px" height="800px" viewBox="0 0 512 512" baseProfile="tiny" overflow="visible" version="1.1" xml:space="preserve" xmlns="http://www.w3.org/2000/svg" xmlns:xlink="http://www.w3.org/1999/xlink">
<g id="Layer_1"/>
<g id="Layer_2"/>
<g id="Layer_3">
<g>
<path d="M186.319,226.944c-7.976,34.989,9.278,68.782,38.539,75.479s59.448-16.239,67.424-51.227    c3.275-14.367,2.296-28.531-2.022-40.7c-8.171-23.029-9.282-46.653-4.179-69.035l3.165-13.882c0.618-2.71-1.077-5.409-3.786-6.029    l-36.807-8.424c-2.712-0.621-5.414,1.076-6.032,3.79l-3.163,13.875c-5.103,22.383-16.34,43.18-33.68,60.371    C196.614,200.244,189.594,212.577,186.319,226.944z" fill="#D97C41"/>
<path d="M290.26,210.495c-8.171-23.029-9.282-46.653-4.179-69.035l3.165-13.882    c0.618-2.71-1.077-5.409-3.786-6.029l-36.807-8.424c-2.594-0.594-5.157,0.944-5.919,3.452l21.726,4.972    c2.709,0.62,4.404,3.319,3.786,6.029l-3.165,13.882c-5.103,22.383-3.992,46.006,4.179,69.035c4.318,12.17,5.297,26.334,2.022,40.7    c-6.071,26.632-25.013,46.263-46.617,51.177c0.065,0.015,0.128,0.036,0.193,0.05c29.261,6.697,59.448-16.238,67.424-51.227    C295.557,236.828,294.578,222.664,290.26,210.495z" fill="#C76D33"/>
<path d="M265.369,59l-12.555,55.076l28.477,6.517l12.555-55.076c7.984-0.066,15.187-5.633,17.054-13.825    c2.18-9.562-3.734-19.072-13.21-21.241c-3.863-0.884-7.721-0.411-11.084,1.107c-2.372-2.83-5.642-4.935-9.505-5.819    c-9.476-2.169-18.924,3.825-21.104,13.387C254.129,47.319,258.205,55.468,265.369,59z" fill="#F2C7AE"/>
<path d="M299.65,205.543c-26.366,0-50.797,7.752-70.845,20.954c-13.684,9.011-30.59,11.407-46.363,7.122    c-35.251-9.577-74.527-0.031-101.743,28.652c-38.188,40.246-38.204,104.497-0.038,144.764    c20.269,21.384,47.235,32.117,74.248,32.262v0.025l1.083-0.022c1.031-0.005,2.06-0.026,3.09-0.062l133.509-2.698l-0.003-0.019    c2.339,0.124,4.689,0.21,7.061,0.21c68.137,0,123.373-51.753,123.373-115.593S367.787,205.543,299.65,205.543z" fill="#AF602D"/>
<g>
<path d="M163.028,233.618c8.249,2.241,16.805,2.637,25.051,1.233c-1.89-0.32-3.772-0.726-5.637-1.233     c-11.978-3.254-24.42-4.294-36.696-3.132C151.567,231.036,157.35,232.076,163.028,233.618z" fill="#A05423"/>
<path d="M299.65,205.543c-3.269,0-6.508,0.121-9.712,0.354c63.601,4.636,113.671,54.458,113.671,115.239     c0,63.84-55.236,115.593-123.373,115.593c-2.372,0-4.722-0.086-7.061-0.21l0.003,0.019l-124.635,2.519     c2.12,0.142,4.243,0.227,6.367,0.238v0.025l1.083-0.022c1.03-0.005,2.06-0.026,3.09-0.062l133.509-2.698l-0.003-0.019     c2.339,0.124,4.689,0.21,7.061,0.21c68.137,0,123.373-51.753,123.373-115.593C423.023,257.296,367.787,205.543,299.65,205.543z" fill="#A05423"/>
</g>
<path d="M294.408,221.326c-27.202,23.095-33.54,60.579-14.156,83.723c19.384,23.144,57.149,23.183,84.351,0.088    c11.169-9.483,18.82-21.392,22.616-33.738c7.185-23.363,20.362-42.906,37.763-57.681l10.794-9.164    c2.11-1.792,2.379-4.951,0.601-7.074l-24.419-29.155c-1.794-2.142-4.988-2.414-7.118-0.605l-10.744,9.122    c-17.401,14.774-38.759,24.551-62.843,27.737C318.527,206.262,305.577,211.843,294.408,221.326z" fill="#D97C41"/>
<path d="M436.378,197.481l-24.419-29.155c-1.794-2.142-4.988-2.414-7.118-0.605l-8.409,7.14l18.946,22.621    c1.778,2.122,1.509,5.282-0.601,7.074l-10.794,9.164c-17.401,14.774-30.579,34.318-37.763,57.681    c-3.797,12.346-11.447,24.254-22.617,33.737c-10.45,8.872-22.458,14.316-34.384,16.362c17.975,3.27,38.671-2.172,55.384-16.362    c11.17-9.483,18.82-21.392,22.617-33.737c7.185-23.363,20.362-42.906,37.763-57.681l10.794-9.164    C437.887,202.763,438.155,199.603,436.378,197.481z" fill="#C76D33"/>
<path d="M457.534,135.263l-42.819,36.354l18.864,22.523l42.819-36.354c6.416,4.803,15.483,4.736,21.852-0.671    c7.434-6.312,8.372-17.504,2.095-24.999c-2.559-3.055-5.922-5.023-9.512-5.857c-0.21-3.703-1.569-7.373-4.127-10.428    c-6.277-7.495-17.392-8.454-24.827-2.142C455.511,119.098,453.915,128.085,457.534,135.263z" fill="#F2C7AE"/>
<g>
<path d="M276.606,31.558c2.637-1.19,5.578-1.725,8.587-1.481c-2.196-2.075-4.942-3.617-8.091-4.338     c-3.051-0.698-6.096-0.54-8.899,0.301C271.584,27.048,274.464,29.003,276.606,31.558z" fill="#EFB899"/>
<path d="M297.69,30.452c-3.057-0.7-6.106-0.538-8.914,0.307c8.83,2.625,14.219,11.745,12.124,20.933     c-1.867,8.192-9.07,13.76-17.054,13.825l-12.06,52.901l9.504,2.175l12.556-55.076c7.984-0.065,15.187-5.633,17.054-13.825     C313.08,42.13,307.165,32.62,297.69,30.452z" fill="#EFB899"/>
</g>
<g>
<path d="M466.398,157.786l-36.975,31.392l4.156,4.962l39.269-33.34     C470.554,160.254,468.352,159.249,466.398,157.786z" fill="#EFB899"/>
<path d="M500.346,132.116c-2.559-3.055-5.922-5.023-9.512-5.857c-0.209-3.703-1.568-7.373-4.127-10.428     c-4.658-5.562-11.979-7.515-18.484-5.578c3.2,0.95,6.171,2.817,8.484,5.578c2.559,3.055,3.918,6.725,4.128,10.428     c3.59,0.833,6.953,2.801,9.512,5.857c6.277,7.495,5.339,18.687-2.095,24.999c-1.915,1.626-4.076,2.759-6.333,3.432     c5.483,1.627,11.64,0.553,16.333-3.432C505.685,150.803,506.623,139.611,500.346,132.116z" fill="#EFB899"/>
</g>
<path d="M433.278,451.637H33.889c-1.834,0-3.523-0.998-4.409-2.604L8.13,410.309    c-1.851-3.357,0.577-7.468,4.409-7.468h442.088c3.832,0,6.26,4.112,4.409,7.468l-21.35,38.724    C436.801,450.64,435.112,451.637,433.278,451.637z" fill="#FFAAA1"/>
<path d="M380.864,486.704H93.921c-2.891,0-5.234-2.343-5.234-5.234v-29.832h297.411v29.832    C386.098,484.36,383.755,486.704,380.864,486.704z" fill="#F54432"/>
<path d="M454.627,402.84h-20c3.832,0,6.26,4.112,4.409,7.468l-21.35,38.724c-0.886,1.607-2.575,2.604-4.409,2.604    h20c1.834,0,3.523-0.998,4.409-2.604l21.35-38.724C460.887,406.952,458.46,402.84,454.627,402.84z" fill="#FF938A"/>
<path d="M366.098,451.637v29.832c0,2.891-2.344,5.234-5.234,5.234h20c2.891,0,5.234-2.344,5.234-5.234v-29.832    H366.098z" fill="#E83826"/>
</g>
</g>
<g id="Layer_4"/>
<g id="Layer_5"/>
<g id="Layer_6"/>
<g id="Layer_7"/>
<g id="Layer_8"/>
<g id="Layer_9"/>
<g id="Layer_10"/>
<g id="Layer_11"/>
<g id="Layer_12"/>
<g id="Layer_13"/>
<g id="Layer_14"/>
<g id="Layer_15"/>
<g id="Layer_16"/>
<g id="Layer_17"/>
<g id="Layer_18"/>
<g id="Layer_19"/>
<g id="Layer_20"/>
<g id="Layer_21"/>
<g id="Layer_22"/>
<g id="Layer_23"/>
<g id="Layer_24"/>
<g id="Layer_25"/>
<g id="Layer_26"/>
<g id="Layer_27"/>
<g id="Layer_28"/>
<g id="Layer_29"/>
<g id="Layer_30"/>
<g id="Layer_31"/>
<g id="Layer_32"/>
<g id="Layer_33"/>
<g id="Layer_34"/>
<g id="Layer_35"/>
<g id="Layer_36"/>
<g id="Layer_37"/>
<g id="Layer_38"/>
<g id="Layer_39"/>
<g id="Layer_40"/>
<g id="Layer_41"/>
<g id="Layer_42"/>
<g id="Layer_43"/>
<g id="Layer_44"/>
<g id="Layer_45"/>
<g id="Layer_46"/>
<g id="Layer_47"/>
<g id="Layer_48"/>
<g id="Layer_49"/>
<g id="Layer_50">
<g>
<g>
<g>
<path d="M186.754,240.281c-0.317,0-0.639-0.02-0.962-0.062c-4.108-0.526-7.013-4.283-6.487-8.391      c0.343-2.683,0.823-5.384,1.428-8.028c3.489-15.331,10.922-28.972,21.494-39.44c15.81-15.673,26.754-35.284,31.647-56.711      l3.158-13.875c1.544-6.748,8.282-10.978,15.016-9.437l36.821,8.432c6.72,1.538,10.944,8.271,9.409,15.007l-3.16,13.878      c-4.611,20.228-3.763,40.621,2.523,60.616c1.242,3.951-0.955,8.162-4.906,9.404c-3.949,1.242-8.161-0.954-9.404-4.906      c-6.993-22.247-7.975-45.916-2.838-68.447l2.615-11.486l-31.997-7.327l-2.612,11.474c-5.527,24.21-17.877,46.35-35.713,64.032      c-8.546,8.462-14.57,19.567-17.428,32.119c-0.497,2.177-0.892,4.395-1.173,6.597      C193.699,237.517,190.471,240.281,186.754,240.281z"/>
</g>
<g>
<path d="M283.014,126.621c-0.559,0-1.12-0.062-1.673-0.189l-28.477-6.517c-4.036-0.923-6.56-4.942-5.64-8.978l11.409-50.048      c-7.055-5.968-10.372-15.485-8.226-24.9c1.497-6.567,5.443-12.164,11.111-15.76c5.69-3.609,12.432-4.77,18.979-3.272      c3.609,0.826,6.919,2.402,9.776,4.631c3.538-0.766,7.202-0.746,10.813,0.081c13.488,3.087,21.945,16.644,18.85,30.219      c-2.147,9.417-9.259,16.549-18.201,18.86l-11.408,50.041c-0.442,1.94-1.638,3.626-3.323,4.684      C285.799,126.229,284.415,126.621,283.014,126.621z M263.515,106.964l13.856,3.171l10.887-47.757      c0.772-3.39,3.774-5.804,7.251-5.833c4.708-0.039,8.739-3.326,9.803-7.992c1.258-5.519-2.139-11.02-7.571-12.263      c-2.136-0.488-4.324-0.271-6.324,0.632c-3.063,1.384-6.673,0.558-8.833-2.018c-1.413-1.686-3.291-2.836-5.431-3.326      c-2.615-0.6-5.313-0.131-7.597,1.317c-2.305,1.461-3.91,3.744-4.522,6.427c-1.065,4.672,1.146,9.393,5.376,11.479      c3.114,1.536,4.768,5.008,3.996,8.394L263.515,106.964z"/>
</g>
</g>
<g>
<path d="M388.648,408.872c-2,0-3.995-0.795-5.472-2.369c-2.834-3.021-2.683-7.767,0.338-10.601     c21.752-20.406,33.732-47.482,33.732-76.241c0-24.562-8.611-47.715-24.904-66.954c-2.677-3.161-2.284-7.894,0.877-10.57     c3.161-2.676,7.895-2.284,10.57,0.877c18.616,21.984,28.456,48.488,28.456,76.648c0,32.948-13.661,63.909-38.468,87.181     C392.331,408.199,390.487,408.872,388.648,408.872z"/>
</g>
<g>
<path d="M78.636,408.872c-2.124,0-4.234-0.897-5.718-2.642c-17.862-21.006-27.312-47.965-26.612-75.913     c0.703-28.056,11.598-54.578,30.675-74.68c28.096-29.612,69.917-41.388,109.149-30.724c0.724,0.193,1.477,0.377,2.23,0.543     c13.22,2.969,27.081,0.524,38.048-6.699c18.749-12.348,40.696-19.856,63.467-21.712c3.769-0.315,7.643-0.475,11.499-0.475     c7.167,0,14.338,0.549,21.317,1.631c3.652,0.504,6.469,3.639,6.469,7.429c0,4.142-3.353,7.5-7.495,7.5h-0.01     c-0.387,0-0.773-0.03-1.156-0.09c-9.599-1.498-19.718-1.855-29.39-1.046c-20.282,1.654-39.797,8.323-56.45,19.29     c-14.345,9.449-32.409,12.662-49.557,8.814c-0.942-0.208-1.908-0.444-2.875-0.702c-33.923-9.221-70.071,0.963-94.364,26.567     c-33.872,35.691-35.417,93.036-3.517,130.551c2.683,3.155,2.3,7.889-0.855,10.572C82.08,408.285,80.353,408.872,78.636,408.872z"/>
</g>
<g>
<g>
<path d="M321.279,328.459c-1.89,0-3.772-0.079-5.648-0.238c-15.827-1.346-29.822-8.388-39.405-19.829      c-21.99-26.256-15.238-68.539,15.052-94.256c11.939-10.136,26.019-16.522,40.717-18.465      c21.95-2.903,42.342-11.901,58.971-26.019l10.745-9.122c2.564-2.177,5.823-3.221,9.175-2.934      c3.352,0.285,6.387,1.862,8.547,4.441l24.418,29.155c4.409,5.261,3.738,13.16-1.495,17.605l-10.795,9.165      c-16.637,14.125-28.895,32.855-35.449,54.168c-4.38,14.24-13.001,27.12-24.931,37.25      C356.711,321.668,338.802,328.459,321.279,328.459z M409.528,173.571l-8.853,7.515c-18.83,15.987-41.899,26.173-66.713,29.454      c-11.836,1.565-23.239,6.762-32.975,15.029l0,0c-24.028,20.4-29.977,53.233-13.261,73.189      c6.997,8.356,17.36,13.51,29.176,14.515c15.313,1.306,31.564-4.284,44.571-15.328c9.745-8.274,16.766-18.725,20.302-30.224      c7.398-24.053,21.256-45.213,40.078-61.194l8.929-7.58L409.528,173.571z M296.133,219.853h0.01H296.133z"/>
</g>
<g>
<path d="M435.932,198.085c-0.361,0-0.723-0.016-1.086-0.046c-3.353-0.286-6.388-1.863-8.547-4.442l-12.397-14.801      c-4.41-5.262-3.739-13.162,1.497-17.607l35.087-29.79c-2.09-9.161,1.052-18.775,8.263-24.898      c5.124-4.35,11.63-6.431,18.316-5.864c6.704,0.57,12.782,3.733,17.115,8.907c2.355,2.812,4.08,6.127,5.033,9.653      c3.297,1.547,6.253,3.821,8.607,6.632c8.904,10.631,7.563,26.571-2.991,35.531c-7.214,6.124-17.17,7.63-25.812,4.032      l-34.996,29.713C441.735,197.046,438.896,198.085,435.932,198.085z M426.973,171.039l9.234,11.024l34.298-29.121      c3.833-3.254,9.185-3.92,13.634-1.693c3.604,1.803,7.913,1.282,10.982-1.323c4.291-3.643,4.829-10.132,1.2-14.466      c-1.08-1.291-2.405-2.261-3.939-2.885c-3.841-1.563-6.654-4.914-7.526-8.964c-0.354-1.644-1.085-3.136-2.173-4.436      c-1.748-2.087-4.194-3.363-6.887-3.592c-2.675-0.229-5.281,0.608-7.337,2.353c-3.107,2.638-4.349,6.888-3.162,10.825      c1.42,4.712-0.117,9.841-3.917,13.068v0L426.973,171.039z M456.524,136.111h0.01H456.524z"/>
</g>
</g>
<g>
<path d="M435.002,457.664H35.613c-4.566,0-8.772-2.484-10.977-6.484l-21.35-38.724c-2.163-3.924-2.094-8.57,0.185-12.428     c2.278-3.858,6.313-6.161,10.793-6.161h442.088c4.48,0,8.515,2.303,10.792,6.161c2.279,3.858,2.348,8.504,0.185,12.429     l-21.349,38.724C443.775,455.18,439.569,457.664,435.002,457.664z M37.07,442.664h396.476l18.632-33.797H18.437L37.07,442.664z"/>
</g>
<g>
<path d="M382.822,492.731H95.412c-6.893,0-12.5-5.607-12.5-12.5v-25.066c0-6.893,5.607-12.5,12.5-12.5h292.41     c4.143,0,7.5,3.358,7.5,7.5v30.066C395.322,487.123,389.715,492.731,382.822,492.731z M97.912,477.73h282.41v-20.066H97.912     V477.73z"/>
</g>
</g>
</g>
</svg>